<svg width="641" height="99" viewBox="0 0 641 99" fill="none" xmlns="http://www.w3.org/2000/svg">
<path d="M95.8153 87V56.328H80.4553V52.44H115.015V56.328H99.7033V87H95.8153ZM123.453 87V52.44H127.341V67.752H154.941V52.44H158.877V87H154.941V71.688H127.341V87H123.453ZM169.129 87V52.44H200.665V56.328H173.017V67.752H195.241V71.688H173.017V83.112H200.665V87H169.129ZM210.583 87V52.44H215.911L241.255 82.584V52.44H245.143V87H239.815L214.471 56.856V87H210.583ZM255.417 87V58.2C255.417 57.144 255.673 56.184 256.185 55.32C256.697 54.424 257.385 53.72 258.249 53.208C259.145 52.696 260.121 52.44 261.177 52.44H284.217C285.273 52.44 286.233 52.696 287.097 53.208C287.993 53.72 288.697 54.424 289.209 55.32C289.721 56.184 289.977 57.144 289.977 58.2V87H286.089V74.376H259.305V87H255.417ZM259.305 70.488H286.089V58.2C286.089 57.688 285.897 57.256 285.513 56.904C285.161 56.52 284.729 56.328 284.217 56.328H261.177C260.665 56.328 260.217 56.52 259.833 56.904C259.481 57.256 259.305 57.688 259.305 58.2V70.488ZM318.22 87V52.44H347.02C348.076 52.44 349.036 52.696 349.9 53.208C350.796 53.72 351.5 54.424 352.012 55.32C352.524 56.184 352.78 57.144 352.78 58.2V81.24C352.78 82.296 352.524 83.272 352.012 84.168C351.5 85.032 350.796 85.72 349.9 86.232C349.036 86.744 348.076 87 347.02 87H318.22ZM323.98 83.112H347.02C347.532 83.112 347.964 82.936 348.316 82.584C348.7 82.2 348.892 81.752 348.892 81.24V58.2C348.892 57.688 348.7 57.256 348.316 56.904C347.964 56.52 347.532 56.328 347.02 56.328H323.98C323.468 56.328 323.02 56.52 322.636 56.904C322.284 57.256 322.108 57.688 322.108 58.2V81.24C322.108 81.752 322.284 82.2 322.636 82.584C323.02 82.936 323.468 83.112 323.98 83.112ZM363.051 87V52.44H394.587V56.328H366.939V67.752H389.163V71.688H366.939V83.112H394.587V87H363.051ZM423.513 87L403.497 52.44H408.057L425.769 83.208L443.433 52.44H447.993L428.025 87H423.513ZM488.956 87V56.328H473.596V52.44H508.156V56.328H492.844V87H488.956ZM516.642 87V52.44H548.178V56.328H520.53V67.752H542.754V71.688H520.53V83.112H548.178V87H516.642ZM563.856 87C562.8 87 561.824 86.744 560.928 86.232C560.064 85.72 559.376 85.032 558.864 84.168C558.352 83.272 558.096 82.296 558.096 81.24V58.2C558.096 57.144 558.352 56.184 558.864 55.32C559.376 54.424 560.064 53.72 560.928 53.208C561.824 52.696 562.8 52.44 563.856 52.44H592.56V56.328H563.856C563.344 56.328 562.896 56.52 562.512 56.904C562.16 57.256 561.984 57.688 561.984 58.2V81.24C561.984 81.752 562.16 82.2 562.512 82.584C562.896 82.936 563.344 83.112 563.856 83.112H592.56V87H563.856ZM602.413 87V52.44H606.301V67.752H633.901V52.44H637.837V87H633.901V71.688H606.301V87H602.413Z" fill="white"/>
<path d="M41.5 5L79 87L41.5 73.1448M41.5 5L4 87L41.5 73.1448M41.5 5V73.1448" stroke="white" stroke-width="4"/>
<rect x="360" y="56" width="43" height="12" fill="black"/>
<rect x="359" y="71" width="39" height="12" fill="black"/>
</svg>
